<mxfile host="app.diagrams.net" modified="2020-11-18T22:34:18.456Z" agent="5.0 (Windows NT 10.0; Win64; x64) AppleWebKit/537.36 (KHTML, like Gecko) Chrome/86.0.4240.198 Safari/537.36" etag="nQA4un0IDXJexd06q3jp" version="13.9.8" type="github">
  <diagram id="eUmKN_x__Ba6qvdYAkvx" name="Page-1">
    <mxGraphModel dx="868" dy="460" grid="1" gridSize="10" guides="1" tooltips="1" connect="1" arrows="1" fold="1" page="1" pageScale="1" pageWidth="827" pageHeight="1169" math="0" shadow="0">
      <root>
        <mxCell id="0" />
        <mxCell id="1" parent="0" />
        <mxCell id="oYK6P3bYC6oowzUZ_Llc-1" style="edgeStyle=orthogonalEdgeStyle;rounded=0;orthogonalLoop=1;jettySize=auto;html=1;exitX=0.5;exitY=0;exitDx=0;exitDy=0;endArrow=block;endFill=0;endSize=10;" edge="1" parent="1" source="oYK6P3bYC6oowzUZ_Llc-11">
          <mxGeometry relative="1" as="geometry">
            <mxPoint x="513" y="426" as="targetPoint" />
          </mxGeometry>
        </mxCell>
        <mxCell id="oYK6P3bYC6oowzUZ_Llc-2" value="{Overlapping, complete}" style="text;html=1;strokeColor=none;fillColor=none;align=center;verticalAlign=middle;whiteSpace=wrap;rounded=0;" vertex="1" parent="1">
          <mxGeometry x="303" y="436" width="150" height="20" as="geometry" />
        </mxCell>
        <mxCell id="oYK6P3bYC6oowzUZ_Llc-3" value="Person" style="swimlane;fontStyle=0;childLayout=stackLayout;horizontal=1;startSize=26;fillColor=none;horizontalStack=0;resizeParent=1;resizeParentMax=0;resizeLast=0;collapsible=1;marginBottom=0;" vertex="1" parent="1">
          <mxGeometry x="443" y="271" width="140" height="156" as="geometry" />
        </mxCell>
        <mxCell id="oYK6P3bYC6oowzUZ_Llc-4" value="id_number" style="text;strokeColor=none;fillColor=none;align=left;verticalAlign=top;spacingLeft=4;spacingRight=4;overflow=hidden;rotatable=0;points=[[0,0.5],[1,0.5]];portConstraint=eastwest;" vertex="1" parent="oYK6P3bYC6oowzUZ_Llc-3">
          <mxGeometry y="26" width="140" height="26" as="geometry" />
        </mxCell>
        <mxCell id="oYK6P3bYC6oowzUZ_Llc-5" value="name" style="text;strokeColor=none;fillColor=none;align=left;verticalAlign=top;spacingLeft=4;spacingRight=4;overflow=hidden;rotatable=0;points=[[0,0.5],[1,0.5]];portConstraint=eastwest;" vertex="1" parent="oYK6P3bYC6oowzUZ_Llc-3">
          <mxGeometry y="52" width="140" height="26" as="geometry" />
        </mxCell>
        <mxCell id="oYK6P3bYC6oowzUZ_Llc-6" value="tax_id" style="text;strokeColor=none;fillColor=none;align=left;verticalAlign=top;spacingLeft=4;spacingRight=4;overflow=hidden;rotatable=0;points=[[0,0.5],[1,0.5]];portConstraint=eastwest;" vertex="1" parent="oYK6P3bYC6oowzUZ_Llc-3">
          <mxGeometry y="78" width="140" height="26" as="geometry" />
        </mxCell>
        <mxCell id="oYK6P3bYC6oowzUZ_Llc-7" value="address" style="text;strokeColor=none;fillColor=none;align=left;verticalAlign=top;spacingLeft=4;spacingRight=4;overflow=hidden;rotatable=0;points=[[0,0.5],[1,0.5]];portConstraint=eastwest;" vertex="1" parent="oYK6P3bYC6oowzUZ_Llc-3">
          <mxGeometry y="104" width="140" height="26" as="geometry" />
        </mxCell>
        <mxCell id="oYK6P3bYC6oowzUZ_Llc-8" value="phone_number" style="text;strokeColor=none;fillColor=none;align=left;verticalAlign=top;spacingLeft=4;spacingRight=4;overflow=hidden;rotatable=0;points=[[0,0.5],[1,0.5]];portConstraint=eastwest;" vertex="1" parent="oYK6P3bYC6oowzUZ_Llc-3">
          <mxGeometry y="130" width="140" height="26" as="geometry" />
        </mxCell>
        <mxCell id="oYK6P3bYC6oowzUZ_Llc-9" style="edgeStyle=orthogonalEdgeStyle;rounded=0;orthogonalLoop=1;jettySize=auto;html=1;exitX=0.5;exitY=0;exitDx=0;exitDy=0;endArrow=block;endFill=0;endSize=10;" edge="1" parent="1" source="oYK6P3bYC6oowzUZ_Llc-17">
          <mxGeometry relative="1" as="geometry">
            <mxPoint x="513" y="426" as="targetPoint" />
          </mxGeometry>
        </mxCell>
        <mxCell id="oYK6P3bYC6oowzUZ_Llc-10" style="rounded=0;orthogonalLoop=1;jettySize=auto;html=1;exitX=1;exitY=0.5;exitDx=0;exitDy=0;entryX=0;entryY=0.5;entryDx=0;entryDy=0;endArrow=none;endFill=0;" edge="1" parent="1" source="oYK6P3bYC6oowzUZ_Llc-45" target="oYK6P3bYC6oowzUZ_Llc-21">
          <mxGeometry relative="1" as="geometry" />
        </mxCell>
        <mxCell id="oYK6P3bYC6oowzUZ_Llc-11" value="Student" style="swimlane;fontStyle=0;childLayout=stackLayout;horizontal=1;startSize=26;fillColor=none;horizontalStack=0;resizeParent=1;resizeParentMax=0;resizeLast=0;collapsible=1;marginBottom=0;" vertex="1" parent="1">
          <mxGeometry x="180" y="517" width="140" height="52" as="geometry" />
        </mxCell>
        <mxCell id="oYK6P3bYC6oowzUZ_Llc-12" value="institutional_email" style="text;strokeColor=none;fillColor=none;align=left;verticalAlign=top;spacingLeft=4;spacingRight=4;overflow=hidden;rotatable=0;points=[[0,0.5],[1,0.5]];portConstraint=eastwest;" vertex="1" parent="oYK6P3bYC6oowzUZ_Llc-11">
          <mxGeometry y="26" width="140" height="26" as="geometry" />
        </mxCell>
        <mxCell id="oYK6P3bYC6oowzUZ_Llc-13" style="edgeStyle=orthogonalEdgeStyle;rounded=0;orthogonalLoop=1;jettySize=auto;html=1;exitX=0.5;exitY=0;exitDx=0;exitDy=0;endArrow=block;endFill=0;endSize=10;" edge="1" parent="1" source="oYK6P3bYC6oowzUZ_Llc-14">
          <mxGeometry relative="1" as="geometry">
            <mxPoint x="513" y="426" as="targetPoint" />
          </mxGeometry>
        </mxCell>
        <mxCell id="oYK6P3bYC6oowzUZ_Llc-14" value="Professor" style="swimlane;fontStyle=0;childLayout=stackLayout;horizontal=1;startSize=26;fillColor=none;horizontalStack=0;resizeParent=1;resizeParentMax=0;resizeLast=0;collapsible=1;marginBottom=0;" vertex="1" parent="1">
          <mxGeometry x="443" y="517" width="140" height="78" as="geometry" />
        </mxCell>
        <mxCell id="oYK6P3bYC6oowzUZ_Llc-15" value="institutional_email" style="text;strokeColor=none;fillColor=none;align=left;verticalAlign=top;spacingLeft=4;spacingRight=4;overflow=hidden;rotatable=0;points=[[0,0.5],[1,0.5]];portConstraint=eastwest;" vertex="1" parent="oYK6P3bYC6oowzUZ_Llc-14">
          <mxGeometry y="26" width="140" height="26" as="geometry" />
        </mxCell>
        <mxCell id="oYK6P3bYC6oowzUZ_Llc-16" value="classification" style="text;strokeColor=none;fillColor=none;align=left;verticalAlign=top;spacingLeft=4;spacingRight=4;overflow=hidden;rotatable=0;points=[[0,0.5],[1,0.5]];portConstraint=eastwest;" vertex="1" parent="oYK6P3bYC6oowzUZ_Llc-14">
          <mxGeometry y="52" width="140" height="26" as="geometry" />
        </mxCell>
        <mxCell id="oYK6P3bYC6oowzUZ_Llc-17" value="Janitor" style="swimlane;fontStyle=0;childLayout=stackLayout;horizontal=1;startSize=26;fillColor=none;horizontalStack=0;resizeParent=1;resizeParentMax=0;resizeLast=0;collapsible=1;marginBottom=0;" vertex="1" parent="1">
          <mxGeometry x="673" y="517" width="140" height="52" as="geometry" />
        </mxCell>
        <mxCell id="oYK6P3bYC6oowzUZ_Llc-18" value="Class" style="swimlane;fontStyle=0;childLayout=stackLayout;horizontal=1;startSize=26;fillColor=none;horizontalStack=0;resizeParent=1;resizeParentMax=0;resizeLast=0;collapsible=1;marginBottom=0;" vertex="1" parent="1">
          <mxGeometry x="443" y="763" width="140" height="78" as="geometry" />
        </mxCell>
        <mxCell id="oYK6P3bYC6oowzUZ_Llc-19" value="code" style="text;strokeColor=none;fillColor=none;align=left;verticalAlign=top;spacingLeft=4;spacingRight=4;overflow=hidden;rotatable=0;points=[[0,0.5],[1,0.5]];portConstraint=eastwest;" vertex="1" parent="oYK6P3bYC6oowzUZ_Llc-18">
          <mxGeometry y="26" width="140" height="26" as="geometry" />
        </mxCell>
        <mxCell id="oYK6P3bYC6oowzUZ_Llc-20" value="name" style="text;strokeColor=none;fillColor=none;align=left;verticalAlign=top;spacingLeft=4;spacingRight=4;overflow=hidden;rotatable=0;points=[[0,0.5],[1,0.5]];portConstraint=eastwest;" vertex="1" parent="oYK6P3bYC6oowzUZ_Llc-18">
          <mxGeometry y="52" width="140" height="26" as="geometry" />
        </mxCell>
        <mxCell id="oYK6P3bYC6oowzUZ_Llc-21" value="Group" style="swimlane;fontStyle=0;childLayout=stackLayout;horizontal=1;startSize=26;fillColor=none;horizontalStack=0;resizeParent=1;resizeParentMax=0;resizeLast=0;collapsible=1;marginBottom=0;" vertex="1" parent="1">
          <mxGeometry x="443" y="642" width="140" height="52" as="geometry" />
        </mxCell>
        <mxCell id="oYK6P3bYC6oowzUZ_Llc-22" value="number" style="text;strokeColor=none;fillColor=none;align=left;verticalAlign=top;spacingLeft=4;spacingRight=4;overflow=hidden;rotatable=0;points=[[0,0.5],[1,0.5]];portConstraint=eastwest;" vertex="1" parent="oYK6P3bYC6oowzUZ_Llc-21">
          <mxGeometry y="26" width="140" height="26" as="geometry" />
        </mxCell>
        <mxCell id="oYK6P3bYC6oowzUZ_Llc-23" style="rounded=0;orthogonalLoop=1;jettySize=auto;html=1;entryX=0.5;entryY=0;entryDx=0;entryDy=0;endArrow=none;endFill=0;endSize=10;exitX=0.502;exitY=1.005;exitDx=0;exitDy=0;exitPerimeter=0;" edge="1" parent="1" source="oYK6P3bYC6oowzUZ_Llc-22" target="oYK6P3bYC6oowzUZ_Llc-18">
          <mxGeometry relative="1" as="geometry">
            <mxPoint x="513" y="696" as="sourcePoint" />
            <mxPoint x="505" y="762" as="targetPoint" />
          </mxGeometry>
        </mxCell>
        <mxCell id="oYK6P3bYC6oowzUZ_Llc-24" value="Enrollment List" style="swimlane;fontStyle=0;childLayout=stackLayout;horizontal=1;startSize=26;fillColor=none;horizontalStack=0;resizeParent=1;resizeParentMax=0;resizeLast=0;collapsible=1;marginBottom=0;" vertex="1" parent="1">
          <mxGeometry x="135" y="336" width="140" height="52" as="geometry" />
        </mxCell>
        <mxCell id="oYK6P3bYC6oowzUZ_Llc-25" value="1" style="text;html=1;strokeColor=none;fillColor=none;align=center;verticalAlign=middle;whiteSpace=wrap;rounded=0;fontSize=14;" vertex="1" parent="1">
          <mxGeometry x="429" y="654" width="4" height="10" as="geometry" />
        </mxCell>
        <mxCell id="oYK6P3bYC6oowzUZ_Llc-26" value="*" style="text;html=1;strokeColor=none;fillColor=none;align=center;verticalAlign=middle;whiteSpace=wrap;rounded=0;fontSize=14;" vertex="1" parent="1">
          <mxGeometry x="256" y="573" width="4" height="10" as="geometry" />
        </mxCell>
        <mxCell id="oYK6P3bYC6oowzUZ_Llc-27" style="edgeStyle=none;rounded=0;orthogonalLoop=1;jettySize=auto;html=1;exitX=0;exitY=0.5;exitDx=0;exitDy=0;endArrow=none;endFill=0;entryX=1;entryY=0.5;entryDx=0;entryDy=0;" edge="1" parent="1" source="oYK6P3bYC6oowzUZ_Llc-29" target="oYK6P3bYC6oowzUZ_Llc-21">
          <mxGeometry relative="1" as="geometry">
            <mxPoint x="468" y="696" as="targetPoint" />
          </mxGeometry>
        </mxCell>
        <mxCell id="oYK6P3bYC6oowzUZ_Llc-28" style="edgeStyle=none;rounded=0;orthogonalLoop=1;jettySize=auto;html=1;exitX=0.5;exitY=0;exitDx=0;exitDy=0;entryX=0.5;entryY=1;entryDx=0;entryDy=0;endArrow=none;endFill=0;fontSize=14;" edge="1" parent="1" source="oYK6P3bYC6oowzUZ_Llc-29" target="oYK6P3bYC6oowzUZ_Llc-17">
          <mxGeometry relative="1" as="geometry" />
        </mxCell>
        <mxCell id="oYK6P3bYC6oowzUZ_Llc-29" value="Classroom" style="swimlane;fontStyle=0;childLayout=stackLayout;horizontal=1;startSize=26;fillColor=none;horizontalStack=0;resizeParent=1;resizeParentMax=0;resizeLast=0;collapsible=1;marginBottom=0;" vertex="1" parent="1">
          <mxGeometry x="673" y="643" width="140" height="52" as="geometry" />
        </mxCell>
        <mxCell id="oYK6P3bYC6oowzUZ_Llc-30" value="number" style="text;strokeColor=none;fillColor=none;align=left;verticalAlign=top;spacingLeft=4;spacingRight=4;overflow=hidden;rotatable=0;points=[[0,0.5],[1,0.5]];portConstraint=eastwest;" vertex="1" parent="oYK6P3bYC6oowzUZ_Llc-29">
          <mxGeometry y="26" width="140" height="26" as="geometry" />
        </mxCell>
        <mxCell id="oYK6P3bYC6oowzUZ_Llc-31" value="1" style="text;html=1;strokeColor=none;fillColor=none;align=center;verticalAlign=middle;whiteSpace=wrap;rounded=0;fontSize=14;" vertex="1" parent="1">
          <mxGeometry x="725" y="569" width="20" height="20" as="geometry" />
        </mxCell>
        <mxCell id="oYK6P3bYC6oowzUZ_Llc-32" value="*" style="text;html=1;strokeColor=none;fillColor=none;align=center;verticalAlign=middle;whiteSpace=wrap;rounded=0;fontSize=14;" vertex="1" parent="1">
          <mxGeometry x="724" y="622" width="20" height="20" as="geometry" />
        </mxCell>
        <mxCell id="oYK6P3bYC6oowzUZ_Llc-33" value="1" style="text;html=1;strokeColor=none;fillColor=none;align=center;verticalAlign=middle;whiteSpace=wrap;rounded=0;fontSize=14;" vertex="1" parent="1">
          <mxGeometry x="653" y="651" width="20" height="20" as="geometry" />
        </mxCell>
        <mxCell id="oYK6P3bYC6oowzUZ_Llc-34" value="*" style="text;html=1;strokeColor=none;fillColor=none;align=center;verticalAlign=middle;whiteSpace=wrap;rounded=0;fontSize=14;" vertex="1" parent="1">
          <mxGeometry x="583" y="649" width="20" height="20" as="geometry" />
        </mxCell>
        <mxCell id="oYK6P3bYC6oowzUZ_Llc-35" value="1" style="text;html=1;strokeColor=none;fillColor=none;align=center;verticalAlign=middle;whiteSpace=wrap;rounded=0;fontSize=14;" vertex="1" parent="1">
          <mxGeometry x="513" y="743" width="20" height="20" as="geometry" />
        </mxCell>
        <mxCell id="oYK6P3bYC6oowzUZ_Llc-36" value="*" style="text;html=1;strokeColor=none;fillColor=none;align=center;verticalAlign=middle;whiteSpace=wrap;rounded=0;fontSize=14;" vertex="1" parent="1">
          <mxGeometry x="513" y="695" width="20" height="20" as="geometry" />
        </mxCell>
        <mxCell id="oYK6P3bYC6oowzUZ_Llc-37" style="edgeStyle=none;rounded=0;orthogonalLoop=1;jettySize=auto;html=1;exitX=0.5;exitY=0;exitDx=0;exitDy=0;endArrow=none;endFill=0;fontSize=14;entryX=0.5;entryY=1;entryDx=0;entryDy=0;" edge="1" parent="1" source="oYK6P3bYC6oowzUZ_Llc-38" target="oYK6P3bYC6oowzUZ_Llc-45">
          <mxGeometry relative="1" as="geometry">
            <mxPoint x="443" y="696" as="targetPoint" />
          </mxGeometry>
        </mxCell>
        <mxCell id="oYK6P3bYC6oowzUZ_Llc-38" value="Occurance" style="swimlane;fontStyle=0;childLayout=stackLayout;horizontal=1;startSize=26;fillColor=none;horizontalStack=0;resizeParent=1;resizeParentMax=0;resizeLast=0;collapsible=1;marginBottom=0;" vertex="1" parent="1">
          <mxGeometry x="180" y="768" width="140" height="130" as="geometry" />
        </mxCell>
        <mxCell id="oYK6P3bYC6oowzUZ_Llc-39" value="id" style="text;strokeColor=none;fillColor=none;align=left;verticalAlign=top;spacingLeft=4;spacingRight=4;overflow=hidden;rotatable=0;points=[[0,0.5],[1,0.5]];portConstraint=eastwest;" vertex="1" parent="oYK6P3bYC6oowzUZ_Llc-38">
          <mxGeometry y="26" width="140" height="26" as="geometry" />
        </mxCell>
        <mxCell id="oYK6P3bYC6oowzUZ_Llc-40" value="date" style="text;strokeColor=none;fillColor=none;align=left;verticalAlign=top;spacingLeft=4;spacingRight=4;overflow=hidden;rotatable=0;points=[[0,0.5],[1,0.5]];portConstraint=eastwest;" vertex="1" parent="oYK6P3bYC6oowzUZ_Llc-38">
          <mxGeometry y="52" width="140" height="26" as="geometry" />
        </mxCell>
        <mxCell id="oYK6P3bYC6oowzUZ_Llc-41" value="start_time" style="text;strokeColor=none;fillColor=none;align=left;verticalAlign=top;spacingLeft=4;spacingRight=4;overflow=hidden;rotatable=0;points=[[0,0.5],[1,0.5]];portConstraint=eastwest;" vertex="1" parent="oYK6P3bYC6oowzUZ_Llc-38">
          <mxGeometry y="78" width="140" height="26" as="geometry" />
        </mxCell>
        <mxCell id="oYK6P3bYC6oowzUZ_Llc-42" value="end_time" style="text;strokeColor=none;fillColor=none;align=left;verticalAlign=top;spacingLeft=4;spacingRight=4;overflow=hidden;rotatable=0;points=[[0,0.5],[1,0.5]];portConstraint=eastwest;" vertex="1" parent="oYK6P3bYC6oowzUZ_Llc-38">
          <mxGeometry y="104" width="140" height="26" as="geometry" />
        </mxCell>
        <mxCell id="oYK6P3bYC6oowzUZ_Llc-43" value="*" style="text;html=1;strokeColor=none;fillColor=none;align=center;verticalAlign=middle;whiteSpace=wrap;rounded=0;fontSize=14;" vertex="1" parent="1">
          <mxGeometry x="256" y="753" width="4" height="10" as="geometry" />
        </mxCell>
        <mxCell id="oYK6P3bYC6oowzUZ_Llc-44" style="edgeStyle=none;rounded=0;orthogonalLoop=1;jettySize=auto;html=1;exitX=0;exitY=0.5;exitDx=0;exitDy=0;endArrow=none;endFill=0;dashed=1;" edge="1" parent="1" source="oYK6P3bYC6oowzUZ_Llc-45" target="oYK6P3bYC6oowzUZ_Llc-47">
          <mxGeometry relative="1" as="geometry" />
        </mxCell>
        <mxCell id="oYK6P3bYC6oowzUZ_Llc-45" value="" style="rhombus;whiteSpace=wrap;html=1;" vertex="1" parent="1">
          <mxGeometry x="210" y="628" width="80" height="80" as="geometry" />
        </mxCell>
        <mxCell id="oYK6P3bYC6oowzUZ_Llc-46" style="edgeStyle=orthogonalEdgeStyle;rounded=0;orthogonalLoop=1;jettySize=auto;html=1;exitX=0.5;exitY=1;exitDx=0;exitDy=0;entryX=0.5;entryY=0;entryDx=0;entryDy=0;endArrow=none;endFill=0;" edge="1" parent="1" source="oYK6P3bYC6oowzUZ_Llc-11" target="oYK6P3bYC6oowzUZ_Llc-45">
          <mxGeometry relative="1" as="geometry">
            <mxPoint x="250" y="569" as="sourcePoint" />
            <mxPoint x="443" y="668" as="targetPoint" />
          </mxGeometry>
        </mxCell>
        <mxCell id="oYK6P3bYC6oowzUZ_Llc-47" value="Attendance" style="swimlane;fontStyle=0;childLayout=stackLayout;horizontal=1;startSize=26;fillColor=none;horizontalStack=0;resizeParent=1;resizeParentMax=0;resizeLast=0;collapsible=1;marginBottom=0;" vertex="1" parent="1">
          <mxGeometry x="15" y="642" width="140" height="52" as="geometry" />
        </mxCell>
        <mxCell id="oYK6P3bYC6oowzUZ_Llc-48" value="present" style="text;strokeColor=none;fillColor=none;align=left;verticalAlign=top;spacingLeft=4;spacingRight=4;overflow=hidden;rotatable=0;points=[[0,0.5],[1,0.5]];portConstraint=eastwest;" vertex="1" parent="oYK6P3bYC6oowzUZ_Llc-47">
          <mxGeometry y="26" width="140" height="26" as="geometry" />
        </mxCell>
      </root>
    </mxGraphModel>
  </diagram>
</mxfile>
